<?xml version="1.0" encoding="utf-8"?>
<!-- Generator: Adobe Illustrator 16.0.0, SVG Export Plug-In . SVG Version: 6.00 Build 0)  -->
<!DOCTYPE svg PUBLIC "-//W3C//DTD SVG 1.1//EN" "http://www.w3.org/Graphics/SVG/1.1/DTD/svg11.dtd">
<svg version="1.1" id="Layer_1" xmlns="http://www.w3.org/2000/svg" xmlns:xlink="http://www.w3.org/1999/xlink" x="0px" y="0px"
	 width="163.219px" height="29.189px" viewBox="0 0 163.219 29.189" enable-background="new 0 0 163.219 29.189"
	 xml:space="preserve">
<g>
	<g>
		<path fill="#FFFFFF" d="M6.382,29.189c-1.953,0-3.504-0.741-4.656-2.223C0.575,25.484,0,23.801,0,21.918
			c0-3.8,0.802-6.678,2.406-8.631c1.604-1.952,3.679-2.93,6.225-2.93c1.185,0,2.162,0.323,2.929,0.969
			c0.767,0.645,1.151,1.525,1.151,2.641c0,2.092-0.881,3.844-2.641,5.257c-1.762,1.413-3.916,2.155-6.461,2.224
			c0.139,1.36,0.602,2.537,1.386,3.531c0.785,0.994,1.7,1.49,2.746,1.49c1.046,0,1.988-0.243,2.825-0.732s1.604-1.186,2.302-2.093
			c1.463-1.917,2.719-4.097,3.766-6.539c0.279-0.627,0.498-1.08,0.654-1.359c0.157-0.279,0.331-0.418,0.523-0.418
			c0.191,0,0.288,0.14,0.288,0.418c0,1.744-1.064,4.36-3.191,7.846C12.606,27.324,9.764,29.189,6.382,29.189z M3.609,20.192
			c2.058-0.349,3.566-1.012,4.525-1.988c0.958-0.977,1.438-2.25,1.438-3.819c0-1.569-0.506-2.354-1.517-2.354
			c-1.222,0-2.249,0.846-3.086,2.538C4.132,16.26,3.679,18.134,3.609,20.192z"/>
		<path fill="#FFFFFF" d="M21.865,26.625c1.255,0,2.354-0.653,3.296-1.961c0.94-1.308,1.638-2.903,2.092-4.786
			c-1.256-0.383-2.216-1.054-2.877-2.013c-0.663-0.959-0.994-2.067-0.994-3.323c0-1.255,0.322-2.353,0.967-3.295
			c0.646-0.942,1.578-1.413,2.8-1.413c0.732,0,1.289,0.463,1.673,1.386c0.383,0.925,0.575,1.962,0.575,3.113
			c0,1.151-0.087,2.302-0.262,3.453c0.523,0.209,1.08,0.313,1.674,0.313c1.359,0,2.667-0.627,3.923-1.882
			c0.627-0.629,1.054-0.942,1.282-0.942c0.227,0,0.34,0.174,0.34,0.523s-0.228,0.768-0.681,1.255
			c-1.848,2.059-4.185,3.087-7.008,3.087c-0.663,2.545-1.693,4.689-3.087,6.433c-1.395,1.745-3.104,2.616-5.126,2.616
			c-1.186,0-2.162-0.505-2.93-1.517c-1.291-1.639-1.935-4.045-1.935-7.219c0-1.081,0.087-2.475,0.261-4.185
			c0.174-1.708,0.374-2.754,0.602-3.138c0.227-0.384,0.784-0.855,1.674-1.413c0.89-0.557,1.508-0.837,1.856-0.837
			c0.523,0,0.785,0.314,0.785,0.941c0,1.779-0.454,3.713-1.36,5.807c0,2.476,0.2,4.594,0.602,6.355
			C20.408,25.746,21.027,26.625,21.865,26.625z M26.624,11.822c-0.279,0-0.417,0.575-0.417,1.726c0,1.152,0.523,2.25,1.569,3.296
			c0.069-0.419,0.104-0.837,0.104-1.256C27.88,13.077,27.461,11.822,26.624,11.822z"/>
		<path fill="#FFFFFF" d="M40.016,29.189c-1.953,0-3.505-0.741-4.656-2.223c-1.15-1.482-1.726-3.165-1.726-5.048
			c0-3.8,0.802-6.678,2.406-8.631c1.604-1.952,3.679-2.93,6.225-2.93c1.185,0,2.162,0.323,2.929,0.969
			c0.766,0.645,1.15,1.525,1.15,2.641c0,2.092-0.88,3.844-2.641,5.257c-1.762,1.413-3.916,2.155-6.461,2.224
			c0.139,1.36,0.602,2.537,1.386,3.531c0.785,0.994,1.7,1.49,2.746,1.49c1.046,0,1.988-0.243,2.825-0.732
			c0.837-0.489,1.604-1.186,2.302-2.093c1.464-1.917,2.72-4.097,3.766-6.539c0.279-0.627,0.498-1.08,0.654-1.359
			c0.157-0.279,0.331-0.418,0.523-0.418c0.191,0,0.288,0.14,0.288,0.418c0,1.744-1.064,4.36-3.19,7.846
			C46.24,27.324,43.397,29.189,40.016,29.189z M37.243,20.192c2.058-0.349,3.566-1.012,4.525-1.988
			c0.958-0.977,1.438-2.25,1.438-3.819c0-1.569-0.506-2.354-1.517-2.354c-1.221,0-2.249,0.846-3.086,2.538
			C37.766,16.26,37.312,18.134,37.243,20.192z"/>
		<path fill="#FFFFFF" d="M53.04,26.102l0.052,1.623c0,0.976-0.279,1.465-0.836,1.465c-0.837,0-1.64-0.114-2.406-0.341
			c-0.768-0.227-1.151-0.54-1.151-0.942c0-0.4,0.096-1.778,0.289-4.132c0.191-2.353,0.288-4.123,0.288-5.309v-3.086
			c0-1.674,0.173-2.686,0.523-3.034c0.348-0.349,0.967-0.854,1.857-1.517c0.889-0.662,1.534-0.994,1.936-0.994
			c0.4,0,0.654,0.07,0.758,0.209c0.104,0.14,0.157,0.402,0.157,0.785c0,1.849-0.349,3.592-1.046,5.23
			c-0.176,1.988-0.262,3.366-0.262,4.133c0.14-0.21,0.872-1.395,2.198-3.557c1.325-2.162,2.45-3.749,3.374-4.761
			c0.924-1.011,1.752-1.517,2.484-1.517s1.387,0.245,1.962,0.733c0.575,0.489,0.863,1.099,0.863,1.83
			c0,1.535-0.166,3.792-0.497,6.774c-0.332,2.981-0.497,4.865-0.497,5.649c0,0.785,0.104,1.177,0.314,1.177
			c0.592-0.035,1.412-0.775,2.458-2.223c1.047-1.446,2.084-3.304,3.112-5.57s1.655-3.4,1.883-3.4c0.227,0,0.34,0.14,0.34,0.418
			c0,0.976-0.505,2.529-1.517,4.655c-2.755,5.859-5.074,8.789-6.957,8.789c-1.359,0-2.389-0.279-3.086-0.837
			c-0.244-0.243-0.366-0.88-0.366-1.909s0.096-2.703,0.289-5.022c0.191-2.318,0.287-4.054,0.287-5.205
			c0-1.152-0.201-1.727-0.602-1.727s-1.457,1.195-3.165,3.583c-1.709,2.389-2.615,3.915-2.719,4.578
			C53.144,23.871,53.04,25.022,53.04,26.102z"/>
		<path fill="#FFFFFF" d="M80.082,20.401C77.327,26.26,75,29.189,73.1,29.189c-1.901,0-3.018-0.228-3.348-0.681
			c-0.332-0.453-0.497-1.952-0.497-4.499c0-2.545,0.243-6.225,0.732-11.038c-1.744-0.347-2.668-1.062-2.772-2.144
			c0-0.558,0.365-0.837,1.099-0.837c0.731,0,1.377,0.14,1.936,0.418c0.313-2.511,0.68-5.056,1.099-7.637
			c0.104-0.662,0.435-1.29,0.993-1.883C72.898,0.297,73.439,0,73.963,0c0.453,0,0.68,0.715,0.68,2.146
			c0,0.663-0.245,3.713-0.732,9.154c0.941-0.174,1.979-0.523,3.113-1.046c1.132-0.523,1.804-0.785,2.013-0.785
			c0.628,0,0.942,0.192,0.942,0.575c0.034,0.35-0.611,0.83-1.937,1.439c-1.325,0.611-2.755,1.072-4.288,1.386
			c-0.419,5.091-0.629,8.945-0.629,11.56c0,1.395,0.21,2.092,0.629,2.092c0.627-0.035,1.465-0.766,2.511-2.197
			c1.046-1.429,2.083-3.287,3.111-5.571c1.028-2.283,1.657-3.426,1.884-3.426s0.34,0.14,0.34,0.418
			C81.6,16.722,81.094,18.274,80.082,20.401z"/>
		<path fill="#FFFFFF" d="M85.261,29.189c-1.953,0-3.505-0.741-4.656-2.223c-1.15-1.482-1.726-3.165-1.726-5.048
			c0-3.8,0.802-6.678,2.406-8.631c1.604-1.952,3.679-2.93,6.225-2.93c1.185,0,2.162,0.323,2.929,0.969
			c0.767,0.645,1.151,1.525,1.151,2.641c0,2.092-0.881,3.844-2.642,5.257c-1.762,1.413-3.915,2.155-6.461,2.224
			c0.14,1.36,0.603,2.537,1.387,3.531c0.785,0.994,1.7,1.49,2.746,1.49s1.987-0.243,2.825-0.732
			c0.837-0.489,1.604-1.186,2.302-2.093c1.464-1.917,2.72-4.097,3.766-6.539c0.279-0.627,0.498-1.08,0.654-1.359
			c0.156-0.279,0.331-0.418,0.522-0.418s0.288,0.14,0.288,0.418c0,1.744-1.063,4.36-3.19,7.846
			C91.485,27.324,88.643,29.189,85.261,29.189z M82.487,20.192c2.059-0.349,3.566-1.012,4.525-1.988
			c0.959-0.977,1.438-2.25,1.438-3.819c0-1.569-0.507-2.354-1.517-2.354c-1.222,0-2.249,0.846-3.087,2.538
			C83.011,16.26,82.558,18.134,82.487,20.192z"/>
		<path fill="#FFFFFF" d="M98.756,15.275l2.877-0.314c0.278,0,0.523,0.158,0.731,0.471c0.21,0.314,0.314,0.646,0.314,0.994
			c0,0.349-0.113,1.535-0.34,3.557c-0.228,2.023-0.341,3.618-0.341,4.786c0,1.169,0.105,1.752,0.314,1.752
			c0.593-0.035,1.412-0.775,2.459-2.223c1.046-1.446,2.083-3.304,3.112-5.57c1.028-2.267,1.655-3.4,1.882-3.4
			s0.342,0.14,0.342,0.418c0,0.976-0.507,2.529-1.518,4.655c-2.755,5.859-5.073,8.789-6.957,8.789c-1.36,0-2.39-0.279-3.086-0.837
			c-0.244-0.243-0.366-1.76-0.366-4.551c0-2.79,0.295-5.178,0.889-7.166c-2.022,0-3.436-0.645-4.237-1.936
			c-0.419-0.662-0.627-1.413-0.627-2.25c0-0.836,0.174-1.569,0.522-2.196s0.846-0.942,1.491-0.942c0.645,0,1.237,0.34,1.778,1.021
			c0.541,0.68,0.811,1.438,0.811,2.275c0,0.836-0.244,1.673-0.731,2.511C98.215,15.223,98.441,15.275,98.756,15.275z"/>
		<path fill="#FFFFFF" d="M110.995,29.189c-1.36,0-2.389-0.279-3.086-0.837c-0.244-0.243-0.366-1.116-0.366-2.615
			s0.113-4.002,0.34-7.507s0.426-5.396,0.602-5.676c0.175-0.279,0.714-0.802,1.621-1.569c0.906-0.766,1.613-1.15,2.119-1.15
			c0.505,0,0.759,0.663,0.759,1.988c0,0.349-0.097,1.029-0.288,2.04c-0.191,1.012-0.411,1.745-0.654,2.197
			c-0.454,1.151-0.679,4.167-0.679,9.049c0,0.942,0.104,1.413,0.312,1.413c0.593-0.035,1.413-0.775,2.459-2.223
			c1.046-1.446,2.083-3.304,3.112-5.57c1.028-2.267,1.656-3.4,1.884-3.4c0.226,0,0.34,0.14,0.34,0.418
			c0,0.976-0.507,2.529-1.518,4.655C115.197,26.26,112.879,29.189,110.995,29.189z M109.479,3.348c0-0.627,0.331-1.168,0.994-1.621
			c0.661-0.453,1.255-0.68,1.777-0.68c0.942,0,1.413,0.541,1.413,1.621c0,1.082-0.28,2.013-0.837,2.798
			c-0.559,0.784-1.344,1.177-2.354,1.177C109.81,6.644,109.479,5.546,109.479,3.348z"/>
		<path fill="#FFFFFF" d="M133.07,17.576c1.394-0.452,2.361-0.845,2.902-1.176s0.949-0.584,1.229-0.759l0.626-0.366
			c0.176-0.104,0.315-0.157,0.42-0.157c0.277,0,0.42,0.157,0.42,0.47c0,0.314-0.542,0.864-1.624,1.648
			c-1.08,0.785-2.424,1.492-4.027,2.119c-0.244,2.929-1.168,5.301-2.771,7.114c-1.605,1.813-3.89,2.721-6.854,2.721
			c-2.162,0-3.817-0.864-4.969-2.59c-1.151-1.727-1.727-3.748-1.727-6.068c0-2.318,0.688-4.506,2.067-6.565
			c1.377-2.057,3.146-3.086,5.309-3.086c0.976-0.698,2.136-1.046,3.479-1.046s2.59,0.715,3.74,2.145
			C132.441,13.409,133.034,15.275,133.07,17.576z M129.67,20.244l-1.884,0.104c-1.604,0-2.964-0.479-4.08-1.438
			s-1.674-2.015-1.674-3.165s0.191-2.144,0.575-2.981c-1.5,1.186-2.249,3.522-2.249,7.009c0,1.674,0.349,3.27,1.046,4.786
			c0.697,1.517,1.796,2.275,3.296,2.275c1.499,0,2.667-0.636,3.505-1.909C129.042,23.654,129.529,22.093,129.67,20.244z
			 M126.426,11.56c-0.558,0-0.994,0.254-1.307,0.759c-0.314,0.506-0.472,1.056-0.472,1.648c0,1.291,0.444,2.336,1.334,3.138
			c0.89,0.803,1.927,1.204,3.113,1.204h0.627c-0.07-1.708-0.357-3.26-0.863-4.655C128.353,12.259,127.542,11.56,126.426,11.56z"/>
	</g>
	<g>
		<path fill="#FFFFFF" d="M161.767,7.971c-0.554-0.181-1.302-0.229-1.775-0.211c-0.783,0.064-1.517,0.119-2.292,0.233
			c-0.724,0.108-1.492,0.277-2.259,0.442L153.6,8.867c-0.604,0.194-1.222,0.34-1.779,0.476c-2.592,0.702-5.148,1.664-7.427,2.688
			c-2.816,1.207-5.726,2.722-8.421,4.369c-0.376,1.096-0.21,0.832-0.658,1.858c0.023-0.012-0.023,0.012,0,0l7.871-3.611
			c2.268-1.129,5.351-1.992,7.7-2.68c0.15-0.044,0.615-0.144,0.615-0.144s3.878-1.099,5.186-1.406
			c1.066-0.25,2.481-0.369,3.629-0.485c0.315,0.006,0.709,0.158,0.915,0.499l0.054-0.008c0.007,0.051-0.044,0.059-0.035,0.11
			l-0.019-0.102c-0.026,0.162-0.062,0.272-0.037,0.427c-0.038,0.113-0.022,0.217-0.009,0.319l0.046,0.311
			c0.016,0.103,0.143,0.243,0.2,0.288l0.676,0.27c0.708-0.21,0.973-0.567,1.112-1.063C163.523,9.825,163.006,8.477,161.767,7.971z"
			/>
	</g>
</g>
</svg>
